<?xml version="1.0" encoding="UTF-8"?>
<svg version="1.1" xmlns="http://www.w3.org/2000/svg" width="143" height="111">
<path d="M0 0 C0.74886475 0.00523682 1.49772949 0.01047363 2.26928711 0.01586914 C3.07817383 0.0190918 3.88706055 0.02231445 4.72045898 0.02563477 C5.5705957 0.03401367 6.42073242 0.04239258 7.29663086 0.05102539 C8.15063477 0.05553711 9.00463867 0.06004883 9.88452148 0.06469727 C12.00108749 0.07652166 14.11761771 0.0944577 16.23413086 0.11352539 C19.1760797 6.56318246 21.58200915 13.07581431 23.73803711 19.82055664 C29.23286534 36.99476874 36.21915341 53.51653826 43.23413086 70.11352539 C46.11246797 63.92192318 48.52941847 57.67981889 50.69506836 51.20727539 C51.0081192 50.28370239 51.32117004 49.36012939 51.64370728 48.40856934 C52.63618327 45.47822274 53.62292464 42.54598731 54.60913086 39.61352539 C55.9068982 35.76919572 57.20698712 31.92565388 58.50756836 28.08227539 C58.82143494 27.15350586 59.13530151 26.22473633 59.4586792 25.26782227 C62.30751255 16.85526945 65.25736636 8.48164354 68.23413086 0.11352539 C73.84413086 0.11352539 79.45413086 0.11352539 85.23413086 0.11352539 C85.23413086 30.47352539 85.23413086 60.83352539 85.23413086 92.11352539 C81.27413086 92.11352539 77.31413086 92.11352539 73.23413086 92.11352539 C72.90413086 69.01352539 72.57413086 45.91352539 72.23413086 22.11352539 C67.61279352 35.36397129 67.61279352 35.36397129 62.99169922 48.61450195 C62.69171524 49.4738031 62.39173126 50.33310425 62.08265686 51.21844482 C61.46070308 53.00312668 60.84089256 54.78855617 60.22264099 56.57452393 C58.57658254 61.31951336 56.89732334 66.04684877 55.14086914 70.75219727 C54.81026993 71.65242615 54.47967072 72.55265503 54.13905334 73.48016357 C53.51598194 75.17296011 52.88088394 76.86139941 52.23143005 78.54425049 C51.95331985 79.30671082 51.67520966 80.06917114 51.38867188 80.85473633 C51.14069351 81.51117126 50.89271515 82.1676062 50.63722229 82.84393311 C49.97371423 85.89355419 49.97371423 85.89355419 51.23413086 92.11352539 C46.28413086 92.11352539 41.33413086 92.11352539 36.23413086 92.11352539 C32.57085113 83.53098431 29.31515279 74.91644518 26.23413086 66.11352539 C20.95413086 65.78352539 15.67413086 65.45352539 10.23413086 65.11352539 C10.23413086 74.02352539 10.23413086 82.93352539 10.23413086 92.11352539 C6.27413086 92.11352539 2.31413086 92.11352539 -1.76586914 92.11352539 C-1.76586914 83.20352539 -1.76586914 74.29352539 -1.76586914 65.11352539 C-5.06586914 65.11352539 -8.36586914 65.11352539 -11.76586914 65.11352539 C-12.02110352 66.40129883 -12.27633789 67.68907227 -12.53930664 69.01586914 C-13.6734307 74.11942743 -15.43224676 78.83918354 -17.39086914 83.67602539 C-17.71571289 84.49393555 -18.04055664 85.3118457 -18.37524414 86.15454102 C-19.1660871 88.14327845 -19.96511133 90.12875938 -20.76586914 92.11352539 C-25.38586914 92.11352539 -30.00586914 92.11352539 -34.76586914 92.11352539 C-28.52153932 74.76963471 -22.04478558 57.53041919 -15.32836914 40.36352539 C-14.98225586 39.47875519 -14.63614258 38.59398499 -14.27954102 37.68240356 C-13.27738619 35.12255286 -12.27385547 32.56324647 -11.26977539 30.00415039 C-10.95709213 29.20596893 -10.64440887 28.40778748 -10.32225037 27.5854187 C-8.70165244 23.45794344 -7.03866514 19.35260355 -5.33618164 15.25805664 C-4.02507001 11.99501913 -3.24341064 9.09657201 -3.07836914 5.55102539 C-2.78504739 0.17904701 -2.78504739 0.17904701 0 0 Z M10.23413086 22.11352539 C10.23413086 32.67352539 10.23413086 43.23352539 10.23413086 54.11352539 C14.19413086 54.11352539 18.15413086 54.11352539 22.23413086 54.11352539 C19.04029461 43.25448214 15.2155289 32.70449152 11.23413086 22.11352539 C10.90413086 22.11352539 10.57413086 22.11352539 10.23413086 22.11352539 Z M-2.76586914 41.11352539 C-3.43644801 42.90373149 -4.10221604 44.69574028 -4.76586914 46.48852539 C-5.13711914 47.48625977 -5.50836914 48.48399414 -5.89086914 49.51196289 C-6.87213191 51.97200601 -6.87213191 51.97200601 -6.76586914 54.11352539 C-5.11586914 54.11352539 -3.46586914 54.11352539 -1.76586914 54.11352539 C-1.76586914 49.82352539 -1.76586914 45.53352539 -1.76586914 41.11352539 C-2.09586914 41.11352539 -2.42586914 41.11352539 -2.76586914 41.11352539 Z " fill="#181818" transform="translate(47.765869140625,10.886474609375)"/>
<path d="M0 0 C0.66 0 1.32 0 2 0 C0.74755965 6.2212855 -0.92807326 12.15387334 -3.01171875 18.14453125 C-3.30303177 18.99440109 -3.59434479 19.84427094 -3.89448547 20.71989441 C-4.82096124 23.41901221 -5.75415039 26.11575254 -6.6875 28.8125 C-7.29405227 30.57732538 -7.90017497 32.34229846 -8.50585938 34.10742188 C-8.80597931 34.98002655 -9.10609924 35.85263123 -9.41531372 36.75167847 C-10.02076162 38.51215907 -10.62515401 40.27300303 -11.22848511 42.03421021 C-12.78423909 46.55596434 -14.38214598 51.05609798 -16.05322266 55.53662109 C-16.38280472 56.43458908 -16.71238678 57.33255707 -17.05195618 58.25773621 C-17.67861314 59.96041567 -18.31750794 61.65866127 -18.97087097 63.35127258 C-19.39291557 64.50710091 -19.39291557 64.50710091 -19.82348633 65.6862793 C-20.07544266 66.35265915 -20.32739899 67.019039 -20.58699036 67.70561218 C-21.26373495 70.77523047 -21.26373495 70.77523047 -20 77 C-24.95 77 -29.9 77 -35 77 C-35 76.67 -35 76.34 -35 76 C-30.71 76 -26.42 76 -22 76 C-22.99 73.03 -22.99 73.03 -24 70 C-23.68692017 67.64894104 -23.68692017 67.64894104 -22.88525391 65.36938477 C-22.59059235 64.50309952 -22.29593079 63.63681427 -21.99234009 62.74427795 C-21.65713348 61.81933029 -21.32192688 60.89438263 -20.9765625 59.94140625 C-20.63756927 58.96123032 -20.29857605 57.98105438 -19.9493103 56.97117615 C-18.85809889 53.82875171 -17.74211953 50.69579571 -16.625 47.5625 C-15.91109694 45.52076317 -15.19884181 43.47844935 -14.48828125 41.43554688 C-13.06615749 37.3560017 -11.63391576 33.28024612 -10.19238281 29.20751953 C-7.92583087 22.80116589 -5.69049983 16.38415005 -3.4609375 9.96484375 C-2.93870102 8.46190514 -2.93870102 8.46190514 -2.40591431 6.92860413 C-1.6036152 4.61918298 -0.80162295 2.30965592 0 0 Z " fill="#BCBCBC" transform="translate(119,26)"/>
<path d="M0 0 C1 2 1 2 0.27148438 4.50268555 C-0.11716797 5.5369165 -0.50582031 6.57114746 -0.90625 7.63671875 C-1.32003906 8.77173828 -1.73382813 9.90675781 -2.16015625 11.07617188 C-3.04701901 13.46656437 -3.94016264 15.85463681 -4.83984375 18.24023438 C-5.25363281 19.38169922 -5.66742188 20.52316406 -6.09375 21.69921875 C-6.48240234 22.73908936 -6.87105469 23.77895996 -7.27148438 24.8503418 C-8.34177608 28.61481041 -8.34177608 28.61481041 -7 35 C-11.95 35 -16.9 35 -22 35 C-22 34.67 -22 34.34 -22 34 C-17.71 34 -13.42 34 -9 34 C-9.66 32.02 -10.32 30.04 -11 28 C-10.43261719 24.96386719 -10.43261719 24.96386719 -9.296875 21.796875 C-8.89339844 20.6521875 -8.48992187 19.5075 -8.07421875 18.328125 C-7.63722656 17.14734375 -7.20023438 15.9665625 -6.75 14.75 C-6.32847656 13.55375 -5.90695313 12.3575 -5.47265625 11.125 C-2.31252756 2.31252756 -2.31252756 2.31252756 0 0 Z " fill="#C7C7C7" transform="translate(106,68)"/>
<path d="M0 0 C1.51400391 0.01740234 1.51400391 0.01740234 3.05859375 0.03515625 C4.07050781 0.04417969 5.08242188 0.05320312 6.125 0.0625 C7.29869141 0.07990234 7.29869141 0.07990234 8.49609375 0.09765625 C8.49609375 0.42765625 8.49609375 0.75765625 8.49609375 1.09765625 C5.19609375 1.09765625 1.89609375 1.09765625 -1.50390625 1.09765625 C-1.88675781 3.02931641 -1.88675781 3.02931641 -2.27734375 5 C-3.41146781 10.10355829 -5.17028387 14.8233144 -7.12890625 19.66015625 C-7.45375 20.47806641 -7.77859375 21.29597656 -8.11328125 22.13867188 C-8.90412421 24.12740931 -9.70314844 26.11289024 -10.50390625 28.09765625 C-15.12390625 28.09765625 -19.74390625 28.09765625 -24.50390625 28.09765625 C-24.50390625 27.76765625 -24.50390625 27.43765625 -24.50390625 27.09765625 C-20.54390625 26.76765625 -16.58390625 26.43765625 -12.50390625 26.09765625 C-11.54677734 23.40802734 -11.54677734 23.40802734 -10.5703125 20.6640625 C-9.73582546 18.32937404 -8.90118198 15.9947415 -8.06640625 13.66015625 C-7.64552734 12.47615234 -7.22464844 11.29214844 -6.79101562 10.07226562 C-6.38818359 8.94755859 -5.98535156 7.82285156 -5.5703125 6.6640625 C-5.19849854 5.62193604 -4.82668457 4.57980957 -4.44360352 3.50610352 C-3.12316229 0.1218082 -3.12316229 0.1218082 0 0 Z " fill="#CECECE" transform="translate(37.50390625,74.90234375)"/>
<path d="M0 0 C1 2 1 2 0.00390625 5.0390625 C-0.47175781 6.22242188 -0.94742188 7.40578125 -1.4375 8.625 C-1.91058594 9.81351563 -2.38367187 11.00203125 -2.87109375 12.2265625 C-3.24363281 13.14179687 -3.61617187 14.05703125 -4 15 C-4.66 15 -5.32 15 -6 15 C-5.23004535 10.22628119 -3.91865756 5.44320697 -2 1 C-1.34 0.67 -0.68 0.34 0 0 Z " fill="#BDBDBD" transform="translate(45,50)"/>
<path d="M0 0 C1 2 1 2 0.29296875 4.34765625 C-0.07183594 5.24355469 -0.43664062 6.13945313 -0.8125 7.0625 C-1.16957031 7.96097656 -1.52664062 8.85945313 -1.89453125 9.78515625 C-3 12 -3 12 -5 13 C-4.55005243 11.20620902 -4.08975857 9.41501072 -3.625 7.625 C-3.36976562 6.62726562 -3.11453125 5.62953125 -2.8515625 4.6015625 C-2 2 -2 2 0 0 Z " fill="#BFBFBF" transform="translate(110,56)"/>
<path d="M0 0 C0.33 0 0.66 0 1 0 C0.67 2.97 0.34 5.94 0 9 C-0.99 9.33 -1.98 9.66 -3 10 C-2.01 6.7 -1.02 3.4 0 0 Z " fill="#AFAFAF" transform="translate(112,47)"/>
</svg>
